<?xml version="1.0" encoding="UTF-8" standalone="no"?>
<svg
   xmlns:dc="http://purl.org/dc/elements/1.1/"
   xmlns:cc="http://creativecommons.org/ns#"
   xmlns:rdf="http://www.w3.org/1999/02/22-rdf-syntax-ns#"
   xmlns:svg="http://www.w3.org/2000/svg"
   xmlns="http://www.w3.org/2000/svg"
   xmlns:sodipodi="http://sodipodi.sourceforge.net/DTD/sodipodi-0.dtd"
   xmlns:inkscape="http://www.inkscape.org/namespaces/inkscape"
   version="1.1"
   x="0px"
   y="0px"
   viewBox="0 0 1400 1400"
   enable-background="new 0 0 30 30"
   xml:space="preserve"
   id="svg2"
   inkscape:version="0.91 r13725"
   sodipodi:docname="noun_saturn_cc.svg"
   width="1400"
   height="1400"><metadata
     id="metadata44"><rdf:RDF><cc:Work
         rdf:about=""><dc:format>image/svg+xml</dc:format><dc:type
           rdf:resource="http://purl.org/dc/dcmitype/StillImage" /><dc:title /></cc:Work></rdf:RDF></metadata><defs
     id="defs42" /><sodipodi:namedview
     pagecolor="#ffffff"
     bordercolor="#666666"
     borderopacity="1"
     objecttolerance="10"
     gridtolerance="10"
     guidetolerance="10"
     inkscape:pageopacity="0"
     inkscape:pageshadow="2"
     inkscape:window-width="1368"
     inkscape:window-height="849"
     id="namedview40"
     showgrid="false"
     inkscape:zoom="0.27812867"
     inkscape:cx="128.57458"
     inkscape:cy="574.57095"
     inkscape:window-x="-8"
     inkscape:window-y="-8"
     inkscape:window-maximized="1"
     inkscape:current-layer="svg2" /><text
     x="35.959049"
     y="1294.6582"
     font-size="5px"
     font-weight="bold"
     id="text36"
     style="font-weight:bold;font-size:77.43061066px;font-family:'Helvetica Neue', Helvetica, Arial-Unicode, Arial, Sans-serif;fill:#000000">Created by Alex Auda Samora</text>
<text
     x="35.959049"
     y="1372.0889"
     font-size="5px"
     font-weight="bold"
     id="text38"
     style="font-weight:bold;font-size:77.43061066px;font-family:'Helvetica Neue', Helvetica, Arial-Unicode, Arial, Sans-serif;fill:#000000">from the Noun Project</text>
<g
     id="g4140"
     inkscape:export-xdpi="76.514442"
     inkscape:export-ydpi="76.514442"><g
       inkscape:export-ydpi="107.3"
       inkscape:export-xdpi="107.3"
       transform="matrix(38.497317,0,0,38.497317,125.85254,116.09261)"
       id="g20"><path
         inkscape:connector-curvature="0"
         id="path22"
         d="m 19.367,6.35 c 0.484,0.27 0.938,0.587 1.359,0.948 2.29,-0.326 3.74,0.011 4.2,0.979 0.44,0.923 -0.15,2.203 -1.708,3.699 -1.572,1.51 -3.991,3.097 -6.634,4.354 -2.644,1.258 -5.401,2.133 -7.565,2.399 -2.143,0.264 -3.508,-0.085 -3.947,-1.01 -0.46,-0.967 0.193,-2.306 1.891,-3.876 -0.015,-0.554 0.026,-1.106 0.122,-1.652 -5.642,3.612 -7.593,6.59 -6.976,7.889 0.622,1.308 4.138,1.673 10.592,-0.458 2.022,-0.667 4.124,-1.517 6.246,-2.526 2.123,-1.01 4.109,-2.103 5.902,-3.251 C 28.575,10.183 30.51,7.224 29.888,5.916 29.271,4.617 25.73,4.252 19.367,6.35 Z" /><path
         inkscape:connector-curvature="0"
         id="path24"
         d="m 12.234,20.102 c 1.878,0.882 4.12,0.949 6.139,-0.012 2.019,-0.961 3.382,-2.741 3.883,-4.754 -1.526,0.919 -3.164,1.8 -4.896,2.625 -1.733,0.824 -3.45,1.538 -5.126,2.141 z" /><path
         inkscape:connector-curvature="0"
         id="path26"
         d="m 9.402,17.7 c 1.985,-0.317 4.415,-1.115 6.771,-2.235 2.355,-1.12 4.507,-2.502 6.007,-3.841 C 22.073,11.253 21.943,10.886 21.772,10.525 20.07,6.946 15.787,5.424 12.207,7.127 8.628,8.829 7.106,13.112 8.808,16.691 c 0.171,0.36 0.374,0.692 0.594,1.009 z" /></g><rect
       y="12.153146"
       x="104.26828"
       height="1204.4785"
       width="1204.4785"
       id="rect4138"
       style="fill:none;fill-opacity:1;stroke:none;stroke-opacity:1" /></g></svg>