<?xml version="1.0" encoding="UTF-8" standalone="no"?>
<!-- Created with Inkscape (http://www.inkscape.org/) -->

<svg
   xmlns:dc="http://purl.org/dc/elements/1.1/"
   xmlns:cc="http://creativecommons.org/ns#"
   xmlns:rdf="http://www.w3.org/1999/02/22-rdf-syntax-ns#"
   xmlns:svg="http://www.w3.org/2000/svg"
   xmlns="http://www.w3.org/2000/svg"
   xmlns:sodipodi="http://sodipodi.sourceforge.net/DTD/sodipodi-0.dtd"
   xmlns:inkscape="http://www.inkscape.org/namespaces/inkscape"
   width="800mm"
   height="400mm"
   viewBox="0 0 2834.6457 1417.3228"
   id="svg4172"
   version="1.1"
   inkscape:version="0.91 r13725"
   inkscape:export-filename="C:\Users\fff00\VLabAnalysisBanner.png"
   inkscape:export-xdpi="26.987499"
   inkscape:export-ydpi="26.987499"
   sodipodi:docname="VLabAnalysisBanner.svg">
  <defs
     id="defs4174" />
  <sodipodi:namedview
     id="base"
     pagecolor="#ffffff"
     bordercolor="#666666"
     borderopacity="1.0"
     inkscape:pageopacity="1"
     inkscape:pageshadow="2"
     inkscape:zoom="0.12374369"
     inkscape:cx="204.53504"
     inkscape:cy="545.31066"
     inkscape:document-units="px"
     inkscape:current-layer="layer1"
     showgrid="false"
     inkscape:window-width="1368"
     inkscape:window-height="849"
     inkscape:window-x="-8"
     inkscape:window-y="-8"
     inkscape:window-maximized="1" />
  <metadata
     id="metadata4177">
    <rdf:RDF>
      <cc:Work
         rdf:about="">
        <dc:format>image/svg+xml</dc:format>
        <dc:type
           rdf:resource="http://purl.org/dc/dcmitype/StillImage" />
        <dc:title></dc:title>
      </cc:Work>
    </rdf:RDF>
  </metadata>
  <g
     inkscape:label="Layer 1"
     inkscape:groupmode="layer"
     id="layer1"
     transform="translate(0,364.96063)">
    <g
       id="g20"
       transform="matrix(29.375022,0,0,29.375022,174.67528,-353.34002)"
       inkscape:export-xdpi="69.099998"
       inkscape:export-ydpi="69.099998">
      <path
         d="m 19.367,6.35 c 0.484,0.27 0.938,0.587 1.359,0.948 2.29,-0.326 3.74,0.011 4.2,0.979 0.44,0.923 -0.15,2.203 -1.708,3.699 -1.572,1.51 -3.991,3.097 -6.634,4.354 -2.644,1.258 -5.401,2.133 -7.565,2.399 -2.143,0.264 -3.508,-0.085 -3.947,-1.01 -0.46,-0.967 0.193,-2.306 1.891,-3.876 -0.015,-0.554 0.026,-1.106 0.122,-1.652 -5.642,3.612 -7.593,6.59 -6.976,7.889 0.622,1.308 4.138,1.673 10.592,-0.458 2.022,-0.667 4.124,-1.517 6.246,-2.526 2.123,-1.01 4.109,-2.103 5.902,-3.251 C 28.575,10.183 30.51,7.224 29.888,5.916 29.271,4.617 25.73,4.252 19.367,6.35 Z"
         id="path22"
         inkscape:connector-curvature="0" />
      <path
         d="m 12.234,20.102 c 1.878,0.882 4.12,0.949 6.139,-0.012 2.019,-0.961 3.382,-2.741 3.883,-4.754 -1.526,0.919 -3.164,1.8 -4.896,2.625 -1.733,0.824 -3.45,1.538 -5.126,2.141 z"
         id="path24"
         inkscape:connector-curvature="0" />
      <path
         d="m 9.402,17.7 c 1.985,-0.317 4.415,-1.115 6.771,-2.235 2.355,-1.12 4.507,-2.502 6.007,-3.841 C 22.073,11.253 21.943,10.886 21.772,10.525 20.07,6.946 15.787,5.424 12.207,7.127 8.628,8.829 7.106,13.112 8.808,16.691 c 0.171,0.36 0.374,0.692 0.594,1.009 z"
         id="path26"
         inkscape:connector-curvature="0" />
    </g>
    <text
       xml:space="preserve"
       style="font-style:normal;font-variant:normal;font-weight:normal;font-stretch:normal;font-size:209.80923462px;line-height:125%;font-family:sans-serif;-inkscape-font-specification:'sans-serif, Normal';text-align:start;letter-spacing:0px;word-spacing:0px;writing-mode:lr-tb;text-anchor:start;fill:#000000;fill-opacity:1;stroke:none;stroke-width:1px;stroke-linecap:butt;stroke-linejoin:miter;stroke-opacity:1"
       x="1357.2666"
       y="87.13221"
       id="text4744"
       sodipodi:linespacing="125%"><tspan
         sodipodi:role="line"
         id="tspan4746"
         x="1357.2666"
         y="87.13221">VLabAnalysis</tspan></text>
  </g>
</svg>
